# xmcd CD database file
#
# Track frame offsets:
#	150
#	13205
#	28163
#	41173
#	53127
#	67353
#	79854
#	92330
#	104693
#	116435
#	131376
#	152569
#	191165
#	203995
#
# Disc length: 2879 seconds
#
# Revision: 0
# Processed by: cddbd v1.4PL0 Copyright (c) Steve Scherf et al.
# Submitted via: CDex 1.50beta9
#
DISCID=c60b3d0e
DTITLE=Bud Freeman - Planet Jazz
DYEAR=1900
DGENRE=Jazz
TTITLE0=Bessie Couldn't Help it
TTITLE1=Apologies
TTITLE2=New Orleans Twist
TTITLE3=The Panic Is On
TTITLE4=At the Codfish Ball
TTITLE5=Easy To Get
TTITLE6=China Boy
TTITLE7=The Eel
TTITLE8=Sugar
TTITLE9=Nobody's Sweetheart
TTITLE10=At Sundown
TTITLE11=You Took Advantage Of Me
TTITLE12=I've Found A New Baby
TTITLE13=At The Jazz Band Ball
EXTD=
EXTT0=
EXTT1=
EXTT2=
EXTT3=
EXTT4=
EXTT5=
EXTT6=
EXTT7=
EXTT8=
EXTT9=
EXTT10=
EXTT11=
EXTT12=
EXTT13=
PLAYORDER=
